<svg xmlns="http://www.w3.org/2000/svg" xmlns:xlink="http://www.w3.org/1999/xlink" width="500" zoomAndPan="magnify" viewBox="0 0 375 374.999991" height="500" preserveAspectRatio="xMidYMid meet" version="1.0"><defs><g/><clipPath id="1c6eb9ae61"><path d="M 0.605469 13.894531 L 374.105469 13.894531 L 374.105469 361.128906 L 0.605469 361.128906 Z M 0.605469 13.894531 " clip-rule="nonzero"/></clipPath><clipPath id="60c6c29410"><path d="M 374.386719 51.394531 L 374.386719 323.601562 C 374.386719 333.546875 370.4375 343.085938 363.402344 350.117188 C 356.371094 357.148438 346.832031 361.101562 336.886719 361.101562 L 38.105469 361.101562 C 28.160156 361.101562 18.621094 357.148438 11.589844 350.117188 C 4.554688 343.085938 0.605469 333.546875 0.605469 323.601562 L 0.605469 51.394531 C 0.605469 41.449219 4.554688 31.910156 11.589844 24.878906 C 18.621094 17.847656 28.160156 13.894531 38.105469 13.894531 L 336.886719 13.894531 C 346.832031 13.894531 356.371094 17.847656 363.402344 24.878906 C 370.4375 31.910156 374.386719 41.449219 374.386719 51.394531 Z M 374.386719 51.394531 " clip-rule="nonzero"/></clipPath><clipPath id="a69a19e5b7"><rect x="0" width="268" y="0" height="281"/></clipPath><clipPath id="5994c17b0f"><rect x="0" width="269" y="0" height="281"/></clipPath></defs><g clip-path="url(#1c6eb9ae61)"><g clip-path="url(#60c6c29410)"><path stroke-linecap="butt" transform="matrix(0.75, 0, 0, 0.75, 0.605338, 13.89613)" fill="none" stroke-linejoin="miter" d="M 498.375238 49.997874 L 498.375238 412.94063 C 498.375238 426.201048 493.109613 438.9198 483.729403 448.294801 C 474.354402 457.669802 461.63565 462.940636 448.375232 462.940636 L 50.00018 462.940636 C 36.739762 462.940636 24.02101 457.669802 14.646009 448.294801 C 5.265799 438.9198 0.000173816 426.201048 0.000173816 412.94063 L 0.000173816 49.997874 C 0.000173816 36.737456 5.265799 24.018704 14.646009 14.643703 C 24.02101 5.268702 36.739762 -0.00213216 50.00018 -0.00213216 L 448.375232 -0.00213216 C 461.63565 -0.00213216 474.354402 5.268702 483.729403 14.643703 C 493.109613 24.018704 498.375238 36.737456 498.375238 49.997874 Z M 498.375238 49.997874 " stroke="#6ee7b7" stroke-width="70" stroke-opacity="1" stroke-miterlimit="4"/></g></g><g transform="matrix(1, 0, 0, 1, 53, 0)"><g clip-path="url(#a69a19e5b7)"><g fill="#6ee7b7" fill-opacity="1"><g transform="translate(1.323429, 176.254424)"><g><path d="M 54.40625 -95.65625 C 59.625 -95.65625 64.75 -94.921875 69.78125 -93.453125 C 74.8125 -91.992188 79.171875 -89.800781 82.859375 -86.875 C 86.679688 -89.414062 90.976562 -91.515625 95.75 -93.171875 C 100.519531 -94.828125 106.28125 -95.65625 113.03125 -95.65625 C 117.863281 -95.65625 122.601562 -95.015625 127.25 -93.734375 C 131.894531 -92.460938 136.03125 -90.457031 139.65625 -87.71875 C 143.28125 -84.988281 146.175781 -81.363281 148.34375 -76.84375 C 150.507812 -72.320312 151.59375 -66.816406 151.59375 -60.328125 L 151.59375 -0.1875 C 150.320312 0.1875 148.316406 0.566406 145.578125 0.953125 C 142.835938 1.335938 140.003906 1.53125 137.078125 1.53125 C 134.273438 1.53125 131.757812 1.335938 129.53125 0.953125 C 127.3125 0.566406 125.4375 -0.195312 123.90625 -1.34375 C 122.375 -2.488281 121.195312 -4.046875 120.375 -6.015625 C 119.550781 -7.984375 119.140625 -10.5625 119.140625 -13.75 L 119.140625 -59.375 C 119.140625 -63.195312 118.054688 -65.96875 115.890625 -67.6875 C 113.722656 -69.40625 110.796875 -70.265625 107.109375 -70.265625 C 105.328125 -70.265625 103.414062 -69.847656 101.375 -69.015625 C 99.34375 -68.191406 97.816406 -67.332031 96.796875 -66.4375 C 96.921875 -65.925781 96.984375 -65.445312 96.984375 -65 C 96.984375 -64.5625 96.984375 -64.148438 96.984375 -63.765625 L 96.984375 -0.1875 C 95.585938 0.1875 93.519531 0.566406 90.78125 0.953125 C 88.039062 1.335938 85.273438 1.53125 82.484375 1.53125 C 79.679688 1.53125 77.164062 1.335938 74.9375 0.953125 C 72.707031 0.566406 70.828125 -0.195312 69.296875 -1.34375 C 67.773438 -2.488281 66.597656 -4.046875 65.765625 -6.015625 C 64.941406 -7.984375 64.53125 -10.5625 64.53125 -13.75 L 64.53125 -59.375 C 64.53125 -63.195312 63.351562 -65.96875 61 -67.6875 C 58.644531 -69.40625 55.8125 -70.265625 52.5 -70.265625 C 50.207031 -70.265625 48.234375 -69.910156 46.578125 -69.203125 C 44.929688 -68.503906 43.535156 -67.835938 42.390625 -67.203125 L 42.390625 -0.1875 C 41.109375 0.1875 39.097656 0.566406 36.359375 0.953125 C 33.628906 1.335938 30.800781 1.53125 27.875 1.53125 C 25.070312 1.53125 22.554688 1.335938 20.328125 0.953125 C 18.097656 0.566406 16.21875 -0.195312 14.6875 -1.34375 C 13.164062 -2.488281 11.988281 -4.046875 11.15625 -6.015625 C 10.332031 -7.984375 9.921875 -10.5625 9.921875 -13.75 L 9.921875 -71.40625 C 9.921875 -74.84375 10.648438 -77.578125 12.109375 -79.609375 C 13.578125 -81.648438 15.585938 -83.5625 18.140625 -85.34375 C 22.460938 -88.394531 27.835938 -90.875 34.265625 -92.78125 C 40.691406 -94.695312 47.40625 -95.65625 54.40625 -95.65625 Z M 54.40625 -95.65625 "/></g></g></g><g fill="#6ee7b7" fill-opacity="1"><g transform="translate(162.837208, 176.254424)"><g><path d="M 59 3.0625 C 51.488281 3.0625 44.519531 2.007812 38.09375 -0.09375 C 31.664062 -2.195312 26.0625 -5.347656 21.28125 -9.546875 C 16.507812 -13.742188 12.753906 -19.023438 10.015625 -25.390625 C 7.285156 -31.753906 5.921875 -39.203125 5.921875 -47.734375 C 5.921875 -56.128906 7.285156 -63.347656 10.015625 -69.390625 C 12.753906 -75.441406 16.351562 -80.40625 20.8125 -84.28125 C 25.269531 -88.164062 30.359375 -91.03125 36.078125 -92.875 C 41.804688 -94.726562 47.664062 -95.65625 53.65625 -95.65625 C 60.394531 -95.65625 66.53125 -94.632812 72.0625 -92.59375 C 77.601562 -90.5625 82.378906 -87.757812 86.390625 -84.1875 C 90.398438 -80.625 93.519531 -76.359375 95.75 -71.390625 C 97.976562 -66.429688 99.09375 -61.023438 99.09375 -55.171875 C 99.09375 -50.847656 97.878906 -47.539062 95.453125 -45.25 C 93.035156 -42.957031 89.664062 -41.492188 85.34375 -40.859375 L 38.1875 -33.796875 C 39.582031 -29.597656 42.441406 -26.445312 46.765625 -24.34375 C 51.097656 -22.238281 56.066406 -21.1875 61.671875 -21.1875 C 66.890625 -21.1875 71.820312 -21.851562 76.46875 -23.1875 C 81.113281 -24.53125 84.898438 -26.09375 87.828125 -27.875 C 89.859375 -26.601562 91.570312 -24.820312 92.96875 -22.53125 C 94.375 -20.238281 95.078125 -17.820312 95.078125 -15.28125 C 95.078125 -9.550781 92.40625 -5.285156 87.0625 -2.484375 C 82.988281 -0.316406 78.40625 1.144531 73.3125 1.90625 C 68.21875 2.675781 63.445312 3.0625 59 3.0625 Z M 53.65625 -71.984375 C 50.59375 -71.984375 47.945312 -71.472656 45.71875 -70.453125 C 43.5 -69.429688 41.6875 -68.125 40.28125 -66.53125 C 38.882812 -64.945312 37.832031 -63.164062 37.125 -61.1875 C 36.425781 -59.21875 36.015625 -57.210938 35.890625 -55.171875 L 68.546875 -60.515625 C 68.160156 -63.066406 66.757812 -65.613281 64.34375 -68.15625 C 61.925781 -70.707031 58.363281 -71.984375 53.65625 -71.984375 Z M 53.65625 -71.984375 "/></g></g></g></g></g><g transform="matrix(1, 0, 0, 1, 52, 94)"><g clip-path="url(#5994c17b0f)"><g fill="#6ee7b7" fill-opacity="1"><g transform="translate(2.31425, 199.474613)"><g><path d="M 54.40625 -95.65625 C 59.625 -95.65625 64.75 -94.921875 69.78125 -93.453125 C 74.8125 -91.992188 79.171875 -89.800781 82.859375 -86.875 C 86.679688 -89.414062 90.976562 -91.515625 95.75 -93.171875 C 100.519531 -94.828125 106.28125 -95.65625 113.03125 -95.65625 C 117.863281 -95.65625 122.601562 -95.015625 127.25 -93.734375 C 131.894531 -92.460938 136.03125 -90.457031 139.65625 -87.71875 C 143.28125 -84.988281 146.175781 -81.363281 148.34375 -76.84375 C 150.507812 -72.320312 151.59375 -66.816406 151.59375 -60.328125 L 151.59375 -0.1875 C 150.320312 0.1875 148.316406 0.566406 145.578125 0.953125 C 142.835938 1.335938 140.003906 1.53125 137.078125 1.53125 C 134.273438 1.53125 131.757812 1.335938 129.53125 0.953125 C 127.3125 0.566406 125.4375 -0.195312 123.90625 -1.34375 C 122.375 -2.488281 121.195312 -4.046875 120.375 -6.015625 C 119.550781 -7.984375 119.140625 -10.5625 119.140625 -13.75 L 119.140625 -59.375 C 119.140625 -63.195312 118.054688 -65.96875 115.890625 -67.6875 C 113.722656 -69.40625 110.796875 -70.265625 107.109375 -70.265625 C 105.328125 -70.265625 103.414062 -69.847656 101.375 -69.015625 C 99.34375 -68.191406 97.816406 -67.332031 96.796875 -66.4375 C 96.921875 -65.925781 96.984375 -65.445312 96.984375 -65 C 96.984375 -64.5625 96.984375 -64.148438 96.984375 -63.765625 L 96.984375 -0.1875 C 95.585938 0.1875 93.519531 0.566406 90.78125 0.953125 C 88.039062 1.335938 85.273438 1.53125 82.484375 1.53125 C 79.679688 1.53125 77.164062 1.335938 74.9375 0.953125 C 72.707031 0.566406 70.828125 -0.195312 69.296875 -1.34375 C 67.773438 -2.488281 66.597656 -4.046875 65.765625 -6.015625 C 64.941406 -7.984375 64.53125 -10.5625 64.53125 -13.75 L 64.53125 -59.375 C 64.53125 -63.195312 63.351562 -65.96875 61 -67.6875 C 58.644531 -69.40625 55.8125 -70.265625 52.5 -70.265625 C 50.207031 -70.265625 48.234375 -69.910156 46.578125 -69.203125 C 44.929688 -68.503906 43.535156 -67.835938 42.390625 -67.203125 L 42.390625 -0.1875 C 41.109375 0.1875 39.097656 0.566406 36.359375 0.953125 C 33.628906 1.335938 30.800781 1.53125 27.875 1.53125 C 25.070312 1.53125 22.554688 1.335938 20.328125 0.953125 C 18.097656 0.566406 16.21875 -0.195312 14.6875 -1.34375 C 13.164062 -2.488281 11.988281 -4.046875 11.15625 -6.015625 C 10.332031 -7.984375 9.921875 -10.5625 9.921875 -13.75 L 9.921875 -71.40625 C 9.921875 -74.84375 10.648438 -77.578125 12.109375 -79.609375 C 13.578125 -81.648438 15.585938 -83.5625 18.140625 -85.34375 C 22.460938 -88.394531 27.835938 -90.875 34.265625 -92.78125 C 40.691406 -94.695312 47.40625 -95.65625 54.40625 -95.65625 Z M 54.40625 -95.65625 "/></g></g></g><g fill="#6ee7b7" fill-opacity="1"><g transform="translate(163.826259, 199.474613)"><g><path d="M 59 3.0625 C 51.488281 3.0625 44.519531 2.007812 38.09375 -0.09375 C 31.664062 -2.195312 26.0625 -5.347656 21.28125 -9.546875 C 16.507812 -13.742188 12.753906 -19.023438 10.015625 -25.390625 C 7.285156 -31.753906 5.921875 -39.203125 5.921875 -47.734375 C 5.921875 -56.128906 7.285156 -63.347656 10.015625 -69.390625 C 12.753906 -75.441406 16.351562 -80.40625 20.8125 -84.28125 C 25.269531 -88.164062 30.359375 -91.03125 36.078125 -92.875 C 41.804688 -94.726562 47.664062 -95.65625 53.65625 -95.65625 C 60.394531 -95.65625 66.53125 -94.632812 72.0625 -92.59375 C 77.601562 -90.5625 82.378906 -87.757812 86.390625 -84.1875 C 90.398438 -80.625 93.519531 -76.359375 95.75 -71.390625 C 97.976562 -66.429688 99.09375 -61.023438 99.09375 -55.171875 C 99.09375 -50.847656 97.878906 -47.539062 95.453125 -45.25 C 93.035156 -42.957031 89.664062 -41.492188 85.34375 -40.859375 L 38.1875 -33.796875 C 39.582031 -29.597656 42.441406 -26.445312 46.765625 -24.34375 C 51.097656 -22.238281 56.066406 -21.1875 61.671875 -21.1875 C 66.890625 -21.1875 71.820312 -21.851562 76.46875 -23.1875 C 81.113281 -24.53125 84.898438 -26.09375 87.828125 -27.875 C 89.859375 -26.601562 91.570312 -24.820312 92.96875 -22.53125 C 94.375 -20.238281 95.078125 -17.820312 95.078125 -15.28125 C 95.078125 -9.550781 92.40625 -5.285156 87.0625 -2.484375 C 82.988281 -0.316406 78.40625 1.144531 73.3125 1.90625 C 68.21875 2.675781 63.445312 3.0625 59 3.0625 Z M 53.65625 -71.984375 C 50.59375 -71.984375 47.945312 -71.472656 45.71875 -70.453125 C 43.5 -69.429688 41.6875 -68.125 40.28125 -66.53125 C 38.882812 -64.945312 37.832031 -63.164062 37.125 -61.1875 C 36.425781 -59.21875 36.015625 -57.210938 35.890625 -55.171875 L 68.546875 -60.515625 C 68.160156 -63.066406 66.757812 -65.613281 64.34375 -68.15625 C 61.925781 -70.707031 58.363281 -71.984375 53.65625 -71.984375 Z M 53.65625 -71.984375 "/></g></g></g></g></g></svg>