<svg xmlns="http://www.w3.org/2000/svg" xmlns:xlink="http://www.w3.org/1999/xlink" width="500" zoomAndPan="magnify" viewBox="0 0 375 374.999991" height="500" preserveAspectRatio="xMidYMid meet" version="1.0"><defs><g/><clipPath id="872c0fa2a5"><path d="M 34 124.71875 L 188.5 124.71875 L 188.5 268.714844 L 34 268.714844 Z M 34 124.71875 " clip-rule="nonzero"/></clipPath><clipPath id="504a4d4fcb"><path d="M 188.6875 162.214844 L 188.6875 230.90625 C 188.6875 251.617188 171.898438 268.40625 151.1875 268.40625 L 71.5 268.40625 C 50.789062 268.40625 34 251.617188 34 230.90625 L 34 162.214844 C 34 141.507812 50.789062 124.71875 71.5 124.71875 L 151.1875 124.71875 C 171.898438 124.71875 188.6875 141.507812 188.6875 162.214844 Z M 188.6875 162.214844 " clip-rule="nonzero"/></clipPath><clipPath id="8eecc94c58"><rect x="0" width="112" y="0" height="128"/></clipPath></defs><g clip-path="url(#872c0fa2a5)"><g clip-path="url(#504a4d4fcb)"><path stroke-linecap="butt" transform="matrix(0.75, 0, 0, 0.75, 33.999491, 124.716906)" fill="none" stroke-linejoin="miter" d="M 206.250679 49.99725 L 206.250679 141.585792 C 206.250679 169.200375 183.865262 191.585792 156.250679 191.585792 L 50.000679 191.585792 C 22.386095 191.585792 0.00067879 169.200375 0.00067879 141.585792 L 0.00067879 49.99725 C 0.00067879 22.387875 22.386095 0.00245839 50.000679 0.00245839 L 156.250679 0.00245839 C 183.865262 0.00245839 206.250679 22.387875 206.250679 49.99725 Z M 206.250679 49.99725 " stroke="#ffffff" stroke-width="44" stroke-opacity="1" stroke-miterlimit="4"/></g></g><g transform="matrix(1, 0, 0, 1, 55, 110)"><g clip-path="url(#8eecc94c58)"><g fill="#ffffff" fill-opacity="1"><g transform="translate(1.230362, 83.821031)"><g><path d="M 22.515625 -39.59375 C 24.679688 -39.59375 26.800781 -39.285156 28.875 -38.671875 C 30.957031 -38.066406 32.765625 -37.160156 34.296875 -35.953125 C 35.867188 -37.003906 37.644531 -37.875 39.625 -38.5625 C 41.601562 -39.25 43.988281 -39.59375 46.78125 -39.59375 C 48.78125 -39.59375 50.738281 -39.328125 52.65625 -38.796875 C 54.582031 -38.265625 56.296875 -37.429688 57.796875 -36.296875 C 59.296875 -35.171875 60.492188 -33.671875 61.390625 -31.796875 C 62.285156 -29.929688 62.734375 -27.65625 62.734375 -24.96875 L 62.734375 -0.078125 C 62.210938 0.078125 61.382812 0.234375 60.25 0.390625 C 59.113281 0.546875 57.941406 0.625 56.734375 0.625 C 55.578125 0.625 54.535156 0.546875 53.609375 0.390625 C 52.691406 0.234375 51.914062 -0.078125 51.28125 -0.546875 C 50.644531 -1.023438 50.15625 -1.671875 49.8125 -2.484375 C 49.476562 -3.304688 49.3125 -4.375 49.3125 -5.6875 L 49.3125 -24.578125 C 49.3125 -26.148438 48.863281 -27.289062 47.96875 -28 C 47.070312 -28.71875 45.859375 -29.078125 44.328125 -29.078125 C 43.585938 -29.078125 42.796875 -28.90625 41.953125 -28.5625 C 41.109375 -28.21875 40.476562 -27.863281 40.0625 -27.5 C 40.113281 -27.289062 40.140625 -27.09375 40.140625 -26.90625 C 40.140625 -26.71875 40.140625 -26.546875 40.140625 -26.390625 L 40.140625 -0.078125 C 39.554688 0.078125 38.695312 0.234375 37.5625 0.390625 C 36.4375 0.546875 35.296875 0.625 34.140625 0.625 C 32.972656 0.625 31.925781 0.546875 31 0.390625 C 30.082031 0.234375 29.304688 -0.078125 28.671875 -0.546875 C 28.046875 -1.023438 27.5625 -1.671875 27.21875 -2.484375 C 26.875 -3.304688 26.703125 -4.375 26.703125 -5.6875 L 26.703125 -24.578125 C 26.703125 -26.148438 26.210938 -27.289062 25.234375 -28 C 24.265625 -28.71875 23.097656 -29.078125 21.734375 -29.078125 C 20.785156 -29.078125 19.96875 -28.929688 19.28125 -28.640625 C 18.59375 -28.347656 18.015625 -28.070312 17.546875 -27.8125 L 17.546875 -0.078125 C 17.015625 0.078125 16.179688 0.234375 15.046875 0.390625 C 13.921875 0.546875 12.75 0.625 11.53125 0.625 C 10.375 0.625 9.332031 0.546875 8.40625 0.390625 C 7.488281 0.234375 6.710938 -0.078125 6.078125 -0.546875 C 5.453125 -1.023438 4.96875 -1.671875 4.625 -2.484375 C 4.28125 -3.304688 4.109375 -4.375 4.109375 -5.6875 L 4.109375 -29.546875 C 4.109375 -30.972656 4.410156 -32.109375 5.015625 -32.953125 C 5.617188 -33.796875 6.445312 -34.582031 7.5 -35.3125 C 9.289062 -36.582031 11.515625 -37.613281 14.171875 -38.40625 C 16.835938 -39.195312 19.617188 -39.59375 22.515625 -39.59375 Z M 22.515625 -39.59375 "/></g></g></g><g fill="#ffffff" fill-opacity="1"><g transform="translate(68.071739, 83.821031)"><g><path d="M 24.421875 1.265625 C 21.304688 1.265625 18.414062 0.832031 15.75 -0.03125 C 13.09375 -0.90625 10.773438 -2.210938 8.796875 -3.953125 C 6.828125 -5.691406 5.273438 -7.875 4.140625 -10.5 C 3.015625 -13.132812 2.453125 -16.21875 2.453125 -19.75 C 2.453125 -23.226562 3.015625 -26.21875 4.140625 -28.71875 C 5.273438 -31.21875 6.765625 -33.269531 8.609375 -34.875 C 10.453125 -36.488281 12.554688 -37.675781 14.921875 -38.4375 C 17.296875 -39.207031 19.722656 -39.59375 22.203125 -39.59375 C 24.992188 -39.59375 27.535156 -39.171875 29.828125 -38.328125 C 32.117188 -37.484375 34.09375 -36.320312 35.75 -34.84375 C 37.414062 -33.375 38.707031 -31.609375 39.625 -29.546875 C 40.550781 -27.492188 41.015625 -25.253906 41.015625 -22.828125 C 41.015625 -21.046875 40.507812 -19.675781 39.5 -18.71875 C 38.5 -17.769531 37.101562 -17.164062 35.3125 -16.90625 L 15.796875 -13.984375 C 16.378906 -12.242188 17.566406 -10.9375 19.359375 -10.0625 C 21.148438 -9.195312 23.203125 -8.765625 25.515625 -8.765625 C 27.679688 -8.765625 29.722656 -9.039062 31.640625 -9.59375 C 33.566406 -10.15625 35.132812 -10.800781 36.34375 -11.53125 C 37.1875 -11.007812 37.894531 -10.273438 38.46875 -9.328125 C 39.050781 -8.378906 39.34375 -7.378906 39.34375 -6.328125 C 39.34375 -3.953125 38.238281 -2.1875 36.03125 -1.03125 C 34.34375 -0.132812 32.445312 0.46875 30.34375 0.78125 C 28.238281 1.101562 26.265625 1.265625 24.421875 1.265625 Z M 22.203125 -29.78125 C 20.941406 -29.78125 19.847656 -29.570312 18.921875 -29.15625 C 18.003906 -28.738281 17.253906 -28.195312 16.671875 -27.53125 C 16.085938 -26.875 15.648438 -26.132812 15.359375 -25.3125 C 15.078125 -24.5 14.910156 -23.671875 14.859375 -22.828125 L 28.359375 -25.046875 C 28.203125 -26.097656 27.625 -27.148438 26.625 -28.203125 C 25.625 -29.253906 24.148438 -29.78125 22.203125 -29.78125 Z M 22.203125 -29.78125 "/></g></g></g></g></g><g fill="#ffffff" fill-opacity="1"><g transform="translate(56.226563, 240.134809)"><g><path d="M 22.515625 -39.59375 C 24.679688 -39.59375 26.800781 -39.285156 28.875 -38.671875 C 30.957031 -38.066406 32.765625 -37.160156 34.296875 -35.953125 C 35.867188 -37.003906 37.644531 -37.875 39.625 -38.5625 C 41.601562 -39.25 43.988281 -39.59375 46.78125 -39.59375 C 48.78125 -39.59375 50.738281 -39.328125 52.65625 -38.796875 C 54.582031 -38.265625 56.296875 -37.429688 57.796875 -36.296875 C 59.296875 -35.171875 60.492188 -33.671875 61.390625 -31.796875 C 62.285156 -29.929688 62.734375 -27.65625 62.734375 -24.96875 L 62.734375 -0.078125 C 62.210938 0.078125 61.382812 0.234375 60.25 0.390625 C 59.113281 0.546875 57.941406 0.625 56.734375 0.625 C 55.578125 0.625 54.535156 0.546875 53.609375 0.390625 C 52.691406 0.234375 51.914062 -0.078125 51.28125 -0.546875 C 50.644531 -1.023438 50.15625 -1.671875 49.8125 -2.484375 C 49.476562 -3.304688 49.3125 -4.375 49.3125 -5.6875 L 49.3125 -24.578125 C 49.3125 -26.148438 48.863281 -27.289062 47.96875 -28 C 47.070312 -28.71875 45.859375 -29.078125 44.328125 -29.078125 C 43.585938 -29.078125 42.796875 -28.90625 41.953125 -28.5625 C 41.109375 -28.21875 40.476562 -27.863281 40.0625 -27.5 C 40.113281 -27.289062 40.140625 -27.09375 40.140625 -26.90625 C 40.140625 -26.71875 40.140625 -26.546875 40.140625 -26.390625 L 40.140625 -0.078125 C 39.554688 0.078125 38.695312 0.234375 37.5625 0.390625 C 36.4375 0.546875 35.296875 0.625 34.140625 0.625 C 32.972656 0.625 31.925781 0.546875 31 0.390625 C 30.082031 0.234375 29.304688 -0.078125 28.671875 -0.546875 C 28.046875 -1.023438 27.5625 -1.671875 27.21875 -2.484375 C 26.875 -3.304688 26.703125 -4.375 26.703125 -5.6875 L 26.703125 -24.578125 C 26.703125 -26.148438 26.210938 -27.289062 25.234375 -28 C 24.265625 -28.71875 23.097656 -29.078125 21.734375 -29.078125 C 20.785156 -29.078125 19.96875 -28.929688 19.28125 -28.640625 C 18.59375 -28.347656 18.015625 -28.070312 17.546875 -27.8125 L 17.546875 -0.078125 C 17.015625 0.078125 16.179688 0.234375 15.046875 0.390625 C 13.921875 0.546875 12.75 0.625 11.53125 0.625 C 10.375 0.625 9.332031 0.546875 8.40625 0.390625 C 7.488281 0.234375 6.710938 -0.078125 6.078125 -0.546875 C 5.453125 -1.023438 4.96875 -1.671875 4.625 -2.484375 C 4.28125 -3.304688 4.109375 -4.375 4.109375 -5.6875 L 4.109375 -29.546875 C 4.109375 -30.972656 4.410156 -32.109375 5.015625 -32.953125 C 5.617188 -33.796875 6.445312 -34.582031 7.5 -35.3125 C 9.289062 -36.582031 11.515625 -37.613281 14.171875 -38.40625 C 16.835938 -39.195312 19.617188 -39.59375 22.515625 -39.59375 Z M 22.515625 -39.59375 "/></g></g></g><g fill="#ffffff" fill-opacity="1"><g transform="translate(123.067208, 240.134809)"><g><path d="M 24.421875 1.265625 C 21.304688 1.265625 18.414062 0.832031 15.75 -0.03125 C 13.09375 -0.90625 10.773438 -2.210938 8.796875 -3.953125 C 6.828125 -5.691406 5.273438 -7.875 4.140625 -10.5 C 3.015625 -13.132812 2.453125 -16.21875 2.453125 -19.75 C 2.453125 -23.226562 3.015625 -26.21875 4.140625 -28.71875 C 5.273438 -31.21875 6.765625 -33.269531 8.609375 -34.875 C 10.453125 -36.488281 12.554688 -37.675781 14.921875 -38.4375 C 17.296875 -39.207031 19.722656 -39.59375 22.203125 -39.59375 C 24.992188 -39.59375 27.535156 -39.171875 29.828125 -38.328125 C 32.117188 -37.484375 34.09375 -36.320312 35.75 -34.84375 C 37.414062 -33.375 38.707031 -31.609375 39.625 -29.546875 C 40.550781 -27.492188 41.015625 -25.253906 41.015625 -22.828125 C 41.015625 -21.046875 40.507812 -19.675781 39.5 -18.71875 C 38.5 -17.769531 37.101562 -17.164062 35.3125 -16.90625 L 15.796875 -13.984375 C 16.378906 -12.242188 17.566406 -10.9375 19.359375 -10.0625 C 21.148438 -9.195312 23.203125 -8.765625 25.515625 -8.765625 C 27.679688 -8.765625 29.722656 -9.039062 31.640625 -9.59375 C 33.566406 -10.15625 35.132812 -10.800781 36.34375 -11.53125 C 37.1875 -11.007812 37.894531 -10.273438 38.46875 -9.328125 C 39.050781 -8.378906 39.34375 -7.378906 39.34375 -6.328125 C 39.34375 -3.953125 38.238281 -2.1875 36.03125 -1.03125 C 34.34375 -0.132812 32.445312 0.46875 30.34375 0.78125 C 28.238281 1.101562 26.265625 1.265625 24.421875 1.265625 Z M 22.203125 -29.78125 C 20.941406 -29.78125 19.847656 -29.570312 18.921875 -29.15625 C 18.003906 -28.738281 17.253906 -28.195312 16.671875 -27.53125 C 16.085938 -26.875 15.648438 -26.132812 15.359375 -25.3125 C 15.078125 -24.5 14.910156 -23.671875 14.859375 -22.828125 L 28.359375 -25.046875 C 28.203125 -26.097656 27.625 -27.148438 26.625 -28.203125 C 25.625 -29.253906 24.148438 -29.78125 22.203125 -29.78125 Z M 22.203125 -29.78125 "/></g></g></g><g fill="#ffffff" fill-opacity="1"><g transform="translate(204.890543, 181.753757)"><g><path d="M 24.484375 -20.9375 C 24.484375 -22.34375 24.082031 -23.375 23.28125 -24.03125 C 22.488281 -24.695312 21.414062 -25.03125 20.0625 -25.03125 C 19.15625 -25.03125 18.257812 -24.914062 17.375 -24.6875 C 16.488281 -24.457031 15.726562 -24.113281 15.09375 -23.65625 L 15.09375 -0.0625 C 14.644531 0.0703125 13.929688 0.207031 12.953125 0.34375 C 11.972656 0.476562 10.960938 0.546875 9.921875 0.546875 C 8.929688 0.546875 8.035156 0.476562 7.234375 0.34375 C 6.441406 0.207031 5.773438 -0.0625 5.234375 -0.46875 C 4.691406 -0.882812 4.269531 -1.441406 3.96875 -2.140625 C 3.675781 -2.847656 3.53125 -3.765625 3.53125 -4.890625 L 3.53125 -25.296875 C 3.53125 -26.515625 3.789062 -27.507812 4.3125 -28.28125 C 4.832031 -29.050781 5.546875 -29.753906 6.453125 -30.390625 C 7.992188 -31.484375 9.929688 -32.367188 12.265625 -33.046875 C 14.609375 -33.722656 17.207031 -34.0625 20.0625 -34.0625 C 25.1875 -34.0625 29.128906 -32.941406 31.890625 -30.703125 C 34.660156 -28.460938 36.046875 -25.347656 36.046875 -21.359375 L 36.046875 -0.0625 C 35.585938 0.0703125 34.867188 0.207031 33.890625 0.34375 C 32.921875 0.476562 31.914062 0.546875 30.875 0.546875 C 29.875 0.546875 28.976562 0.476562 28.1875 0.34375 C 27.394531 0.207031 26.722656 -0.0625 26.171875 -0.46875 C 25.628906 -0.882812 25.210938 -1.441406 24.921875 -2.140625 C 24.628906 -2.847656 24.484375 -3.765625 24.484375 -4.890625 Z M 24.484375 -20.9375 "/></g></g></g><g fill="#ffffff" fill-opacity="1"><g transform="translate(244.530002, 181.753757)"><g><path d="M 8.703125 -8.4375 C 8.203125 -9.5625 7.664062 -10.828125 7.09375 -12.234375 C 6.53125 -13.640625 5.941406 -15.25 5.328125 -17.0625 C 4.722656 -18.875 4.09375 -20.945312 3.4375 -23.28125 C 2.78125 -25.625 2.085938 -28.3125 1.359375 -31.34375 C 1.992188 -31.976562 2.84375 -32.535156 3.90625 -33.015625 C 4.976562 -33.492188 6.144531 -33.734375 7.40625 -33.734375 C 9 -33.734375 10.316406 -33.398438 11.359375 -32.734375 C 12.398438 -32.078125 13.171875 -30.84375 13.671875 -29.03125 L 19.046875 -10.34375 L 19.3125 -10.34375 C 19.851562 -11.875 20.382812 -13.546875 20.90625 -15.359375 C 21.425781 -17.179688 21.9375 -19.054688 22.4375 -20.984375 C 22.9375 -22.910156 23.398438 -24.832031 23.828125 -26.75 C 24.265625 -28.675781 24.640625 -30.570312 24.953125 -32.4375 C 26.585938 -33.300781 28.378906 -33.734375 30.328125 -33.734375 C 31.910156 -33.734375 33.222656 -33.390625 34.265625 -32.703125 C 35.316406 -32.023438 35.84375 -30.847656 35.84375 -29.171875 C 35.84375 -27.953125 35.679688 -26.535156 35.359375 -24.921875 C 35.046875 -23.316406 34.625 -21.601562 34.09375 -19.78125 C 33.570312 -17.96875 32.960938 -16.097656 32.265625 -14.171875 C 31.566406 -12.242188 30.832031 -10.351562 30.0625 -8.5 C 29.289062 -6.644531 28.492188 -4.890625 27.671875 -3.234375 C 26.859375 -1.578125 26.066406 -0.09375 25.296875 1.21875 C 24.023438 3.445312 22.84375 5.257812 21.75 6.65625 C 20.664062 8.0625 19.625 9.160156 18.625 9.953125 C 17.632812 10.753906 16.640625 11.300781 15.640625 11.59375 C 14.640625 11.882812 13.597656 12.03125 12.515625 12.03125 C 10.609375 12.03125 9.066406 11.460938 7.890625 10.328125 C 6.710938 9.203125 6.007812 7.734375 5.78125 5.921875 C 7.226562 4.785156 8.675781 3.523438 10.125 2.140625 C 11.582031 0.753906 12.898438 -0.660156 14.078125 -2.109375 C 13.304688 -2.335938 12.476562 -2.867188 11.59375 -3.703125 C 10.707031 -4.546875 9.742188 -6.125 8.703125 -8.4375 Z M 8.703125 -8.4375 "/></g></g></g><g fill="#ffffff" fill-opacity="1"><g transform="translate(281.99371, 181.753757)"><g><path d="M 17.6875 -7.34375 C 18.457031 -7.34375 19.304688 -7.421875 20.234375 -7.578125 C 21.160156 -7.734375 21.847656 -7.953125 22.296875 -8.234375 L 22.296875 -13.671875 L 17.40625 -13.265625 C 16.132812 -13.171875 15.09375 -12.894531 14.28125 -12.4375 C 13.46875 -11.988281 13.0625 -11.3125 13.0625 -10.40625 C 13.0625 -9.5 13.410156 -8.757812 14.109375 -8.1875 C 14.804688 -7.625 16 -7.34375 17.6875 -7.34375 Z M 17.140625 -34.0625 C 19.585938 -34.0625 21.816406 -33.8125 23.828125 -33.3125 C 25.847656 -32.820312 27.570312 -32.066406 29 -31.046875 C 30.425781 -30.023438 31.523438 -28.726562 32.296875 -27.15625 C 33.066406 -25.59375 33.453125 -23.75 33.453125 -21.625 L 33.453125 -6.390625 C 33.453125 -5.210938 33.125 -4.25 32.46875 -3.5 C 31.8125 -2.75 31.03125 -2.101562 30.125 -1.5625 C 27.175781 0.207031 23.03125 1.09375 17.6875 1.09375 C 15.28125 1.09375 13.113281 0.863281 11.1875 0.40625 C 9.257812 -0.0390625 7.601562 -0.71875 6.21875 -1.625 C 4.832031 -2.53125 3.765625 -3.6875 3.015625 -5.09375 C 2.273438 -6.5 1.90625 -8.132812 1.90625 -10 C 1.90625 -13.125 2.832031 -15.523438 4.6875 -17.203125 C 6.550781 -18.878906 9.429688 -19.921875 13.328125 -20.328125 L 22.234375 -21.28125 L 22.234375 -21.765625 C 22.234375 -23.078125 21.65625 -24.015625 20.5 -24.578125 C 19.34375 -25.148438 17.675781 -25.4375 15.5 -25.4375 C 13.78125 -25.4375 12.101562 -25.253906 10.46875 -24.890625 C 8.84375 -24.523438 7.367188 -24.070312 6.046875 -23.53125 C 5.460938 -23.9375 4.960938 -24.554688 4.546875 -25.390625 C 4.140625 -26.234375 3.9375 -27.109375 3.9375 -28.015625 C 3.9375 -29.191406 4.21875 -30.128906 4.78125 -30.828125 C 5.351562 -31.535156 6.226562 -32.140625 7.40625 -32.640625 C 8.726562 -33.140625 10.28125 -33.5 12.0625 -33.71875 C 13.851562 -33.945312 15.546875 -34.0625 17.140625 -34.0625 Z M 17.140625 -34.0625 "/></g></g></g><g fill="#ffffff" fill-opacity="1"><g transform="translate(174.93742, 241.753753)"><g/></g></g><g fill="#ffffff" fill-opacity="1"><g transform="translate(188.535862, 241.753753)"><g/></g></g><g fill="#ffffff" fill-opacity="1"><g transform="translate(202.136637, 241.753753)"><g><path d="M 1.5 -5.515625 C 1.5 -7.410156 2.085938 -8.992188 3.265625 -10.265625 C 4.441406 -11.535156 6.050781 -12.171875 8.09375 -12.171875 C 10.132812 -12.171875 11.742188 -11.535156 12.921875 -10.265625 C 14.097656 -8.992188 14.6875 -7.410156 14.6875 -5.515625 C 14.6875 -3.609375 14.097656 -2.019531 12.921875 -0.75 C 11.742188 0.519531 10.132812 1.15625 8.09375 1.15625 C 6.050781 1.15625 4.441406 0.519531 3.265625 -0.75 C 2.085938 -2.019531 1.5 -3.609375 1.5 -5.515625 Z M 1.5 -5.515625 "/></g></g></g><g fill="#ffffff" fill-opacity="1"><g transform="translate(218.318788, 241.753753)"><g><path d="M 22.171875 -24.953125 C 21.035156 -24.953125 19.957031 -24.769531 18.9375 -24.40625 C 17.914062 -24.050781 17.03125 -23.519531 16.28125 -22.8125 C 15.53125 -22.113281 14.925781 -21.238281 14.46875 -20.1875 C 14.019531 -19.144531 13.796875 -17.925781 13.796875 -16.53125 C 13.796875 -13.71875 14.597656 -11.609375 16.203125 -10.203125 C 17.816406 -8.796875 19.78125 -8.09375 22.09375 -8.09375 C 23.457031 -8.09375 24.632812 -8.25 25.625 -8.5625 C 26.625 -8.882812 27.507812 -9.226562 28.28125 -9.59375 C 29.1875 -8.957031 29.867188 -8.265625 30.328125 -7.515625 C 30.785156 -6.765625 31.015625 -5.867188 31.015625 -4.828125 C 31.015625 -2.972656 30.128906 -1.535156 28.359375 -0.515625 C 26.585938 0.503906 24.140625 1.015625 21.015625 1.015625 C 18.160156 1.015625 15.578125 0.597656 13.265625 -0.234375 C 10.953125 -1.078125 8.96875 -2.253906 7.3125 -3.765625 C 5.65625 -5.285156 4.375 -7.109375 3.46875 -9.234375 C 2.5625 -11.367188 2.109375 -13.726562 2.109375 -16.3125 C 2.109375 -19.3125 2.59375 -21.929688 3.5625 -24.171875 C 4.539062 -26.421875 5.867188 -28.269531 7.546875 -29.71875 C 9.222656 -31.164062 11.160156 -32.25 13.359375 -32.96875 C 15.554688 -33.695312 17.878906 -34.0625 20.328125 -34.0625 C 23.597656 -34.0625 26.113281 -33.472656 27.875 -32.296875 C 29.644531 -31.117188 30.53125 -29.601562 30.53125 -27.75 C 30.53125 -26.882812 30.328125 -26.078125 29.921875 -25.328125 C 29.515625 -24.578125 29.035156 -23.929688 28.484375 -23.390625 C 27.722656 -23.753906 26.796875 -24.101562 25.703125 -24.4375 C 24.617188 -24.78125 23.441406 -24.953125 22.171875 -24.953125 Z M 22.171875 -24.953125 "/></g></g></g><g fill="#ffffff" fill-opacity="1"><g transform="translate(251.566973, 241.753753)"><g><path d="M 37.734375 -16.53125 C 37.734375 -13.71875 37.300781 -11.210938 36.4375 -9.015625 C 35.582031 -6.816406 34.375 -4.96875 32.8125 -3.46875 C 31.25 -1.96875 29.378906 -0.832031 27.203125 -0.0625 C 25.023438 0.707031 22.597656 1.09375 19.921875 1.09375 C 17.242188 1.09375 14.816406 0.6875 12.640625 -0.125 C 10.472656 -0.945312 8.601562 -2.117188 7.03125 -3.640625 C 5.46875 -5.160156 4.253906 -7.003906 3.390625 -9.171875 C 2.535156 -11.347656 2.109375 -13.800781 2.109375 -16.53125 C 2.109375 -19.195312 2.535156 -21.617188 3.390625 -23.796875 C 4.253906 -25.972656 5.46875 -27.820312 7.03125 -29.34375 C 8.601562 -30.863281 10.472656 -32.03125 12.640625 -32.84375 C 14.816406 -33.65625 17.242188 -34.0625 19.921875 -34.0625 C 22.597656 -34.0625 25.023438 -33.640625 27.203125 -32.796875 C 29.378906 -31.960938 31.25 -30.785156 32.8125 -29.265625 C 34.375 -27.753906 35.582031 -25.910156 36.4375 -23.734375 C 37.300781 -21.554688 37.734375 -19.15625 37.734375 -16.53125 Z M 13.9375 -16.53125 C 13.9375 -13.757812 14.46875 -11.632812 15.53125 -10.15625 C 16.601562 -8.6875 18.085938 -7.953125 19.984375 -7.953125 C 21.890625 -7.953125 23.351562 -8.695312 24.375 -10.1875 C 25.394531 -11.6875 25.90625 -13.800781 25.90625 -16.53125 C 25.90625 -19.25 25.382812 -21.34375 24.34375 -22.8125 C 23.300781 -24.289062 21.828125 -25.03125 19.921875 -25.03125 C 18.015625 -25.03125 16.539062 -24.289062 15.5 -22.8125 C 14.457031 -21.34375 13.9375 -19.25 13.9375 -16.53125 Z M 13.9375 -16.53125 "/></g></g></g><g fill="#ffffff" fill-opacity="1"><g transform="translate(291.410412, 241.753753)"><g><path d="M 19.375 -34.0625 C 21.238281 -34.0625 23.066406 -33.800781 24.859375 -33.28125 C 26.648438 -32.757812 28.203125 -31.976562 29.515625 -30.9375 C 30.867188 -31.84375 32.394531 -32.585938 34.09375 -33.171875 C 35.800781 -33.765625 37.851562 -34.0625 40.25 -34.0625 C 41.976562 -34.0625 43.664062 -33.832031 45.3125 -33.375 C 46.96875 -32.925781 48.441406 -32.210938 49.734375 -31.234375 C 51.035156 -30.265625 52.066406 -28.972656 52.828125 -27.359375 C 53.597656 -25.753906 53.984375 -23.796875 53.984375 -21.484375 L 53.984375 -0.0625 C 53.535156 0.0703125 52.820312 0.207031 51.84375 0.34375 C 50.875 0.476562 49.867188 0.546875 48.828125 0.546875 C 47.828125 0.546875 46.929688 0.476562 46.140625 0.34375 C 45.347656 0.207031 44.675781 -0.0625 44.125 -0.46875 C 43.582031 -0.882812 43.164062 -1.441406 42.875 -2.140625 C 42.582031 -2.847656 42.4375 -3.765625 42.4375 -4.890625 L 42.4375 -21.140625 C 42.4375 -22.503906 42.050781 -23.492188 41.28125 -24.109375 C 40.507812 -24.722656 39.460938 -25.03125 38.140625 -25.03125 C 37.515625 -25.03125 36.835938 -24.878906 36.109375 -24.578125 C 35.378906 -24.285156 34.832031 -23.976562 34.46875 -23.65625 C 34.519531 -23.476562 34.546875 -23.3125 34.546875 -23.15625 C 34.546875 -23 34.546875 -22.851562 34.546875 -22.71875 L 34.546875 -0.0625 C 34.046875 0.0703125 33.304688 0.207031 32.328125 0.34375 C 31.359375 0.476562 30.375 0.546875 29.375 0.546875 C 28.375 0.546875 27.476562 0.476562 26.6875 0.34375 C 25.894531 0.207031 25.226562 -0.0625 24.6875 -0.46875 C 24.144531 -0.882812 23.722656 -1.441406 23.421875 -2.140625 C 23.128906 -2.847656 22.984375 -3.765625 22.984375 -4.890625 L 22.984375 -21.140625 C 22.984375 -22.503906 22.5625 -23.492188 21.71875 -24.109375 C 20.882812 -24.722656 19.878906 -25.03125 18.703125 -25.03125 C 17.878906 -25.03125 17.171875 -24.90625 16.578125 -24.65625 C 15.992188 -24.40625 15.5 -24.164062 15.09375 -23.9375 L 15.09375 -0.0625 C 14.644531 0.0703125 13.929688 0.207031 12.953125 0.34375 C 11.972656 0.476562 10.960938 0.546875 9.921875 0.546875 C 8.929688 0.546875 8.035156 0.476562 7.234375 0.34375 C 6.441406 0.207031 5.773438 -0.0625 5.234375 -0.46875 C 4.691406 -0.882812 4.269531 -1.441406 3.96875 -2.140625 C 3.675781 -2.847656 3.53125 -3.765625 3.53125 -4.890625 L 3.53125 -25.4375 C 3.53125 -26.65625 3.789062 -27.625 4.3125 -28.34375 C 4.832031 -29.070312 5.546875 -29.753906 6.453125 -30.390625 C 7.992188 -31.484375 9.910156 -32.367188 12.203125 -33.046875 C 14.492188 -33.722656 16.882812 -34.0625 19.375 -34.0625 Z M 19.375 -34.0625 "/></g></g></g></svg>